<svg width="134" height="36" viewBox="0 0 134 36" fill="none" xmlns="http://www.w3.org/2000/svg">
<path d="M27.48 30C28.8055 30 29.8992 28.918 29.6912 27.609C29.3415 25.4092 28.6618 24.171 29.0406 23.7715C32.7476 18.7601 30.411 11.2763 28.4309 7.42457C28.1899 6.95566 27.5901 6.84206 27.177 7.16595L24.375 9.36272H16.7147L14.823 6.38254C14.6292 6.07714 14.2661 5.91571 13.9306 6.04476C9.25388 7.84334 5.45925 19.4268 3.62725 27.1435C3.27742 28.617 4.41302 30 5.92753 30H27.48Z" fill="#26272D"/>
<path d="M14.1104 6.51172C14.1692 6.48916 14.2753 6.49801 14.3643 6.60059L14.4014 6.65039L16.293 9.63086L16.4395 9.8623H24.5479L24.6836 9.75586L27.4854 7.55957C27.6432 7.43581 27.8398 7.46757 27.9463 7.59375L27.9863 7.65332C28.9568 9.54109 30.0127 12.3182 30.3721 15.2246C30.7205 18.0428 30.4084 20.9245 28.7988 23.251L28.6387 23.4746C28.4327 23.7256 28.4167 24.0363 28.4346 24.2686C28.4544 24.5259 28.5271 24.8277 28.6094 25.1416C28.7585 25.7105 28.9663 26.4149 29.1299 27.2979L29.1973 27.6875C29.3486 28.6393 28.555 29.4997 27.4805 29.5H5.92773C4.79798 29.5 3.95276 28.5379 4.07617 27.4727L4.11328 27.2588C5.02554 23.4162 6.42446 18.622 8.1709 14.5732C9.04447 12.5481 9.99904 10.7254 11.0127 9.30566C11.9697 7.96536 12.9461 7.03176 13.916 6.59277L14.1104 6.51172Z" stroke="white" stroke-opacity="0.08"/>
<path d="M22.5664 15C21.9251 16.5233 20.3478 17.6006 18.5029 17.6006C16.6582 17.6004 15.0817 16.5232 14.4404 15H22.5664Z" fill="#BBEE4D"/>
<path d="M20.1155 15C20.1316 15.1137 20.1418 15.2307 20.1418 15.3486C20.1418 15.6672 20.0828 15.9806 19.9661 16.2324C19.8686 16.4426 19.6334 16.8007 19.2004 16.8008C18.7674 16.8008 18.5324 16.4427 18.4348 16.2324C18.3181 15.9806 18.2591 15.6672 18.259 15.3486C18.259 15.2307 18.2693 15.1137 18.2854 15H20.1155Z" fill="black"/>
<path d="M28.8633 15C28.4709 16.4067 27.4164 17.415 26.1729 17.415C24.9293 17.415 23.8748 16.4067 23.4824 15H28.8633Z" fill="#BBEE4D"/>
<path d="M27.6648 15C27.6809 15.1137 27.6912 15.2307 27.6912 15.3486C27.6911 15.6672 27.6321 15.9806 27.5154 16.2324C27.4179 16.4426 27.1828 16.8007 26.7498 16.8008C26.3167 16.8008 26.0817 16.4426 25.9841 16.2324C25.8674 15.9806 25.8084 15.6672 25.8083 15.3486C25.8084 15.2307 25.8186 15.1137 25.8347 15H27.6648Z" fill="black"/>
<path d="M40.2217 22.833L40.2178 22.999C40.1314 24.7014 38.7239 26.0557 37 26.0557V16.3887C37.0002 14.6094 38.4425 13.1672 40.2217 13.167V22.833ZM59.5547 22.833C59.5547 24.6125 58.1115 26.0557 56.332 26.0557V16.3887C56.3322 14.6093 57.7753 13.167 59.5547 13.167V22.833ZM69.2207 13.167C71.0001 13.167 72.4432 14.6093 72.4434 16.3887V22.833C72.4434 24.6125 71.0002 26.0557 69.2207 26.0557V13.167ZM91.7754 22.833C91.7754 24.6124 90.333 26.0555 88.5537 26.0557H82.1094C80.3299 26.0557 78.8867 24.6125 78.8867 22.833H91.7754ZM98.2197 22.833C98.2197 24.6125 96.7766 26.0557 94.9971 26.0557V16.3887C94.9972 14.6093 96.4403 13.167 98.2197 13.167V22.833ZM111.108 22.833C111.108 24.6125 109.665 26.0557 107.886 26.0557V16.3887C107.886 14.6093 109.329 13.167 111.108 13.167V22.833ZM117.552 22.833H130.44C130.44 24.6124 128.998 26.0554 127.219 26.0557H114.33V22.833C114.33 21.0537 115.772 19.6115 117.552 19.6113V22.833ZM78.8867 22.833C77.1075 22.8328 75.6652 21.3906 75.665 19.6113V13.167C75.665 11.3876 77.1074 9.94454 78.8867 9.94434V22.833ZM85.3311 22.833C83.5517 22.8329 82.1095 21.3906 82.1094 19.6113V13.167C82.1094 11.3876 83.5516 9.94444 85.3311 9.94434V22.833ZM91.7754 22.833C89.996 22.833 88.5539 21.3907 88.5537 19.6113V13.167C88.5537 11.3875 89.9959 9.94435 91.7754 9.94434V22.833ZM49.8887 16.3887V13.167C51.6126 13.1672 53.0204 14.5211 53.1064 16.2236L53.1104 16.3887C53.1104 18.1127 51.7564 19.5204 50.0537 19.6064L49.8887 19.6113H45.1309C44.1993 19.6112 43.4443 18.8554 43.4443 17.9238C43.4445 17.0761 44.1318 16.3887 44.9795 16.3887H49.8887ZM67.6094 16.3887C68.4991 16.3887 69.2207 17.1102 69.2207 18C69.2207 18.8898 68.4991 19.6113 67.6094 19.6113H61.166C60.2763 19.6113 59.5547 18.8898 59.5547 18C59.5547 17.1102 60.2763 16.3887 61.166 16.3887H67.6094ZM127.219 16.3887C127.219 18.1682 125.776 19.6113 123.996 19.6113H117.552C117.552 17.8318 118.995 16.3887 120.774 16.3887H127.219ZM130.44 16.3887H127.219C127.219 14.6093 128.661 13.167 130.44 13.167V16.3887ZM46.832 9.94922C48.5346 10.0354 49.8887 11.443 49.8887 13.167H40.2217C40.2217 11.3875 41.6648 9.94434 43.4443 9.94434H46.666L46.832 9.94922ZM65.999 9.94434C67.7784 9.94448 69.2207 11.3876 69.2207 13.167H59.5547C59.5547 11.3876 60.997 9.9445 62.7764 9.94434H65.999ZM107.886 9.94434C109.665 9.94434 111.108 11.3875 111.108 13.167H98.2197C98.2197 11.3876 99.662 9.94448 101.441 9.94434H107.886ZM130.44 13.167H114.33C114.33 11.3876 115.772 9.94452 117.552 9.94434H130.44V13.167Z" fill="#BBEE4D"/>
</svg>
