<svg width="36" height="36" viewBox="0 0 36 36" fill="none" xmlns="http://www.w3.org/2000/svg">
<path d="M29.4 30.6004C30.7255 30.6004 31.8189 29.5187 31.6165 28.2087C31.2481 25.8246 30.4879 24.4871 30.9007 24.0605C34.8725 18.7985 32.3689 10.9405 30.2474 6.89619C29.9891 6.40383 29.3466 6.28455 28.9039 6.62463L25.9018 8.93125H17.6944L15.6675 5.80206C15.4598 5.48138 15.0709 5.31188 14.7113 5.44738C9.67272 7.3464 5.58973 19.6341 3.63951 27.7358C3.28417 29.212 4.42092 30.6004 5.93927 30.6004H29.4Z" fill="#26272D"/>
<path d="M14.8877 5.91504C14.9733 5.88282 15.104 5.90365 15.2061 6.01855L15.248 6.07422L17.2744 9.20312L17.4229 9.43164H26.0713L26.2061 9.32812L29.209 7.02148C29.3968 6.87721 29.6323 6.91618 29.7578 7.06055L29.8047 7.12891C30.8453 9.11269 31.978 12.0302 32.3633 15.084C32.7368 18.0447 32.402 21.0755 30.6729 23.5244L30.502 23.7588C30.2821 24.0199 30.267 24.348 30.2881 24.5957C30.3114 24.869 30.3914 25.1918 30.4824 25.5303C30.6471 26.1423 30.8762 26.9061 31.0508 27.8633L31.1221 28.2852C31.2696 29.24 30.4741 30.1004 29.4004 30.1006H5.93945C4.80675 30.1006 3.96037 29.1347 4.08691 28.0674L4.12598 27.8525C5.09721 23.8179 6.59746 18.7519 8.47559 14.4668C9.41492 12.3237 10.4414 10.3915 11.5342 8.88574C12.5653 7.46506 13.6222 6.46999 14.6768 6.00195L14.8877 5.91504Z" stroke="white" stroke-opacity="0.08"/>
<path d="M25.126 14.7139C24.4846 16.2372 22.9074 17.3145 21.0625 17.3145C19.2178 17.3143 17.6413 16.2371 17 14.7139H25.126Z" fill="#D5FF40"/>
<path d="M22.675 14.7139C22.6912 14.8276 22.7014 14.9445 22.7014 15.0625C22.7014 15.3811 22.6423 15.6945 22.5256 15.9463C22.4282 16.1565 22.193 16.5145 21.76 16.5146C21.327 16.5146 21.0919 16.1565 20.9944 15.9463C20.8777 15.6945 20.8187 15.3811 20.8186 15.0625C20.8186 14.9445 20.8288 14.8276 20.845 14.7139H22.675Z" fill="black"/>
<path d="M31.4231 14.7139C31.0307 16.1206 29.9762 17.1289 28.7327 17.1289C27.4891 17.1289 26.4346 16.1206 26.0422 14.7139H31.4231Z" fill="#D5FF40"/>
<path d="M30.2246 14.7139C30.2407 14.8276 30.251 14.9445 30.251 15.0625C30.2509 15.3811 30.1919 15.6944 30.0752 15.9463C29.9777 16.1565 29.7426 16.5146 29.3096 16.5146C28.8765 16.5146 28.6415 16.1565 28.5439 15.9463C28.4272 15.6944 28.3682 15.3811 28.3682 15.0625C28.3682 14.9445 28.3784 14.8276 28.3945 14.7139H30.2246Z" fill="black"/>
</svg>
