<svg width="20" height="20" viewBox="0 0 20 20" fill="none" xmlns="http://www.w3.org/2000/svg">
<path fillRule="evenodd" clipRule="evenodd" d="M16.7975 2.26103C17.0086 2.1792 17.2379 2.15623 17.461 2.19457C17.6841 2.2329 17.8926 2.3311 18.0643 2.47869C18.236 2.62628 18.3643 2.81772 18.4356 3.03256C18.507 3.2474 18.5187 3.47758 18.4694 3.69853L18.4686 3.70203L18.4686 3.70203L15.5311 16.5302L15.531 16.5305C15.4825 16.7418 15.3799 16.9369 15.2332 17.0965C15.0865 17.2562 14.9008 17.3749 14.6944 17.4411C14.4879 17.5073 14.2678 17.5187 14.0556 17.4741C13.8438 17.4296 13.6473 17.3309 13.4851 17.1876C13.4848 17.1873 13.4845 17.187 13.4842 17.1867L6.58784 11.1189L2.58792 10.3159L2.58535 10.3154C1.38392 10.069 1.1993 8.38609 2.37352 7.92592L2.60156 8.50782L2.37309 7.92609L2.37352 7.92592L16.795 2.26203L16.7975 2.26103ZM2.83353 9.0882C2.83364 9.08895 2.83377 9.08965 2.83391 9.09032C2.83451 9.09046 2.83515 9.09061 2.83585 9.09075C2.83607 9.0908 2.8363 9.09085 2.83653 9.0909L6.99802 9.92631C7.10555 9.9479 7.20551 9.99741 7.28786 10.0699L14.3113 16.2495L14.3127 16.2508L17.2494 3.42651L2.83353 9.0882ZM2.82758 9.08836C2.82758 9.08836 2.82759 9.08836 2.82761 9.08837L2.82758 9.08836Z" fill="#F1F1F1"/>
<path fillRule="evenodd" clipRule="evenodd" d="M18.0145 2.49348C18.2166 2.7733 18.1536 3.16398 17.8738 3.36609L7.24095 11.0458C6.96112 11.2479 6.57044 11.1849 6.36834 10.9051C6.16623 10.6252 6.22923 10.2345 6.50905 10.0324L17.1419 2.35276C17.4217 2.15065 17.8124 2.21365 18.0145 2.49348Z" fill="#F1F1F1"/>
<path fillRule="evenodd" clipRule="evenodd" d="M6.875 9.91406C7.22018 9.91406 7.5 10.1939 7.5 10.5391L7.5 15.624L7.50336 15.6205L9.94087 13.1831C10.1849 12.939 10.5807 12.939 10.8248 13.1831C11.0688 13.4271 11.0688 13.8229 10.8248 14.0669L8.38866 16.503C8.21503 16.6786 7.99329 16.7987 7.75141 16.8484C7.50861 16.8983 7.25648 16.8748 7.02704 16.781C6.7976 16.6872 6.60122 16.5274 6.46287 16.3217C6.32451 16.1161 6.25041 15.8739 6.25 15.626L6.25 10.5391C6.25 10.1939 6.52982 9.91406 6.875 9.91406Z" fill="#F1F1F1"/>
</svg>
